<svg width="23" height="40" viewBox="0 0 23 40" fill="none" xmlns="http://www.w3.org/2000/svg">
<path d="M-85.77 11.39H-83.77V25.31H-77.77V27.31H-85.77V11.39ZM-71.54 11.39C-70.3533 11.39 -69.1933 11.7419 -68.2066 12.4012C-67.2199 13.0605 -66.4508 13.9975 -65.9967 15.0939C-65.5426 16.1903 -65.4238 17.3967 -65.6553 18.5605C-65.8868 19.7244 -66.4582 20.7935 -67.2974 21.6326C-68.1365 22.4718 -69.2056 23.0432 -70.3695 23.2747C-71.5333 23.5062 -72.7397 23.3874 -73.8361 22.9333C-74.9325 22.4791 -75.8695 21.7101 -76.5288 20.7234C-77.1881 19.7367 -77.54 18.5767 -77.54 17.39C-77.54 16.6021 -77.3848 15.8218 -77.0833 15.0939C-76.7818 14.3659 -76.3398 13.7045 -75.7826 13.1474C-75.2255 12.5902 -74.5641 12.1482 -73.8361 11.8467C-73.1082 11.5452 -72.3279 11.39 -71.54 11.39ZM-71.54 21.39C-70.7489 21.39 -69.9755 21.1554 -69.3177 20.7159C-68.6599 20.2763 -68.1472 19.6516 -67.8445 18.9207C-67.5417 18.1898 -67.4625 17.3856 -67.6169 16.6096C-67.7712 15.8337 -68.1522 15.121 -68.7116 14.5616C-69.271 14.0022 -69.9837 13.6212 -70.7596 13.4669C-71.5356 13.3125 -72.3398 13.3917 -73.0707 13.6945C-73.8016 13.9972 -74.4264 14.5099 -74.8659 15.1677C-75.3054 15.8255 -75.54 16.5989 -75.54 17.39C-75.5347 18.4474 -75.111 19.4597 -74.3614 20.2055C-73.6118 20.9513 -72.5974 21.37 -71.54 21.37V21.39ZM-75.54 25.33H-67.54V27.33H-75.54V25.33ZM-49.94 27.33H-51.94V25.9C-53.2298 26.8028 -54.7656 27.288 -56.34 27.29C-57.6825 27.299 -59.0057 26.97 -60.1876 26.3333C-61.3696 25.6965 -62.3723 24.7726 -63.1033 23.6466C-63.8344 22.5206 -64.2704 21.2287 -64.371 19.8899C-64.4717 18.5512 -64.2338 17.2086 -63.6793 15.986C-63.1248 14.7633 -62.2715 13.6998 -61.1981 12.8936C-60.1246 12.0873 -58.8655 11.5641 -57.5368 11.3723C-56.208 11.1804 -54.8523 11.3261 -53.5947 11.7958C-52.337 12.2655 -51.2177 13.0441 -50.34 14.06L-51.81 15.37C-52.4776 14.6236 -53.3213 14.0562 -54.2644 13.7195C-55.2074 13.3827 -56.2197 13.2873 -57.209 13.442C-58.1984 13.5967 -59.1332 13.9966 -59.9285 14.6051C-60.7237 15.2137 -61.354 16.0115 -61.7618 16.9261C-62.1697 17.8406 -62.3422 18.8426 -62.2636 19.8409C-62.185 20.8392 -61.8579 21.8019 -61.3119 22.6413C-60.7659 23.4807 -60.0186 24.1702 -59.1379 24.6468C-58.2573 25.1234 -57.2713 25.372 -56.27 25.37C-55.439 25.3717 -54.6174 25.1939 -53.8614 24.8487C-53.1055 24.5035 -52.433 23.9991 -51.89 23.37H-57.29V21.37H-49.92L-49.94 27.33ZM-42.58 11.43C-41.3933 11.43 -40.2333 11.7819 -39.2466 12.4412C-38.2599 13.1005 -37.4908 14.0375 -37.0367 15.1339C-36.5826 16.2303 -36.4638 17.4367 -36.6953 18.6005C-36.9268 19.7644 -37.4982 20.8335 -38.3374 21.6726C-39.1765 22.5118 -40.2456 23.0832 -41.4095 23.3147C-42.5733 23.5462 -43.7797 23.4274 -44.8761 22.9733C-45.9725 22.5191 -46.9095 21.7501 -47.5688 20.7634C-48.2281 19.7767 -48.58 18.6167 -48.58 17.43C-48.5853 16.637 -48.4333 15.8509 -48.1329 15.117C-47.8325 14.3831 -47.3896 13.716 -46.8298 13.1544C-46.27 12.5927 -45.6044 12.1476 -44.8715 11.8447C-44.1386 11.5419 -43.353 11.3873 -42.56 11.39L-42.58 11.43ZM-42.58 21.43C-41.7889 21.43 -41.0155 21.1954 -40.3577 20.7559C-39.6999 20.3163 -39.1872 19.6916 -38.8845 18.9607C-38.5817 18.2298 -38.5025 17.4256 -38.6569 16.6496C-38.8112 15.8737 -39.1922 15.161 -39.7516 14.6016C-40.311 14.0422 -41.0237 13.6612 -41.7996 13.5069C-42.5756 13.3525 -43.3798 13.4317 -44.1107 13.7345C-44.8416 14.0372 -45.4664 14.5499 -45.9059 15.2077C-46.3454 15.8655 -46.58 16.6389 -46.58 17.43C-46.5642 18.4839 -46.1331 19.489 -45.3803 20.2268C-44.6276 20.9645 -43.614 21.3754 -42.56 21.37L-42.58 21.43ZM-46.58 25.37H-38.58V27.37H-46.58V25.37ZM-34.45 11.39H-32.45V27.29H-34.45V11.39ZM-29.68 11.39H-27.68C-27.577 11.3791 -27.4731 11.3791 -27.37 11.39C-26.5324 11.2991 -25.685 11.3857 -24.8831 11.644C-24.0812 11.9024 -23.3426 12.3267 -22.7156 12.8894C-22.0885 13.4521 -21.587 14.1406 -21.2437 14.91C-20.9003 15.6794 -20.7229 16.5125 -20.7229 17.355C-20.7229 18.1975 -20.9003 19.0306 -21.2437 19.8C-21.587 20.5694 -22.0885 21.2579 -22.7156 21.8206C-23.3426 22.3833 -24.0812 22.8076 -24.8831 23.066C-25.685 23.3243 -26.5324 23.4109 -27.37 23.32H-27.68V27.32H-29.68V11.39ZM-27.68 13.39V21.3H-27.37C-26.8051 21.3752 -26.2307 21.3289 -25.6851 21.164C-25.1396 20.9992 -24.6356 20.7197 -24.2069 20.3443C-23.7781 19.9689 -23.4346 19.5062 -23.1992 18.9872C-22.9638 18.4682 -22.842 17.9049 -22.842 17.335C-22.842 16.7651 -22.9638 16.2018 -23.1992 15.6828C-23.4346 15.1638 -23.7781 14.7011 -24.2069 14.3257C-24.6356 13.9502 -25.1396 13.6708 -25.6851 13.5059C-26.2307 13.3411 -26.8051 13.2948 -27.37 13.37C-27.4789 13.3813 -27.5863 13.4048 -27.69 13.44L-27.68 13.39ZM-13.27 12.54L-14.75 13.71C-15.0053 13.4432 -15.3315 13.2548 -15.6902 13.167C-16.0489 13.0792 -16.4252 13.0956 -16.7749 13.2143C-17.1247 13.3329 -17.4332 13.5489 -17.6644 13.8369C-17.8956 14.1249 -18.0398 14.4729 -18.08 14.84V15C-18.08 15.88 -17.47 16.47 -16.28 16.55C-11.7 16.83 -9.60002 18.98 -9.60002 21.82V22C-9.71832 23.124 -10.1569 24.1904 -10.8637 25.0724C-11.5705 25.9544 -12.5158 26.6147 -13.587 26.975C-14.6583 27.3352 -15.8105 27.3802 -16.9066 27.1045C-18.0027 26.8289 -18.9966 26.2442 -19.77 25.42L-18.24 24.24C-17.8839 24.6217 -17.449 24.9213 -16.9655 25.1182C-16.482 25.315 -15.9615 25.4044 -15.44 25.38C-14.4768 25.4308 -13.5313 25.1075 -12.8009 24.4776C-12.0704 23.8478 -11.6115 22.9601 -11.52 22V21.86C-11.52 19.19 -14.14 18.7 -16.41 18.48C-18.51 18.28 -20.02 16.97 -20.02 15.08V15C-19.946 14.016 -19.4969 13.098 -18.7656 12.4356C-18.0343 11.7731 -17.0765 11.4167 -16.09 11.44C-15.5672 11.4246 -15.0471 11.5189 -14.563 11.717C-14.079 11.9151 -13.6419 12.2125 -13.28 12.59L-13.27 12.54ZM-1.77002 25.26C0.719978 25.26 2.68999 22.57 2.68999 19.26V11.26H4.68999V19.26C4.68999 23.66 1.80997 27.21 -1.73003 27.21C-5.27003 27.21 -8.15002 23.66 -8.15002 19.26V11.26H-6.15002V19.26C-6.23003 22.62 -4.26002 25.31 -1.78001 25.31L-1.77002 25.26ZM20.04 27.26H18.04V17.36L13.43 23.36L8.81998 17.36V27.29H6.81998V11.39L13.42 20.08L20.02 11.39L20.04 27.26Z" fill="#394149"/>
</svg>
